<svg width="512" height="512" xmlns="http://www.w3.org/2000/svg">

 <g>
  <title>background</title>
  <rect fill="none" id="canvas_background" height="402" width="582" y="-1" x="-1"/>
 </g>
 <g>
  <title>Layer 1</title>
  <path fill="#1598ea" id="svg_2" d="m256,32c-74,0 -134.2,58.7 -134.2,132.7c0,16.4 3.5,34.3 9.8,50.4l-0.1,0l0.6,1.2c0.5,1.1 1,2.2 1.5,3.3l122.4,260.4l121.8,-259.1l0.6,-1.2c0.5,-1.1 1.1,-2.2 1.6,-3.4l0.4,-1.1c6.5,-16.1 9.8,-33.1 9.8,-50.3c0,-74.2 -60.2,-132.9 -134.2,-132.9zm0,174.9c-25.9,0 -46.9,-21 -46.9,-46.9c0,-25.9 21,-46.9 46.9,-46.9c25.9,0 46.9,21 46.9,46.9c0,25.9 -21,46.9 -46.9,46.9z"/>
 </g>
</svg>