<svg width="32" height="32" xmlns="http://www.w3.org/2000/svg">
 <title/>

 <g>
  <title>background</title>
  <rect fill="none" id="canvas_background" height="402" width="582" y="-1" x="-1"/>
 </g>
 <g>
  <title>Layer 1</title>
  <path id="svg_1" fill="#ff7f00" d="m23,18l-21,0a1,1 0 0 1 -1,-1l0,-5a1,1 0 0 1 1,-1l21,0"/>
  <polyline id="svg_2" fill=" none" stroke=" #000" stroke-linecap=" round" stroke-linejoin=" round" stroke-width=" 2px" points="30 12 26 12 26 6"/>
  <circle id="svg_3" fill="#ff7f00" stroke=" #000" stroke-linecap=" round" stroke-linejoin=" round" stroke-width=" 2px" r="3" cy="23.936104" cx="7.063896"/>
  <circle id="svg_4" fill="#ff7f00" stroke=" #000" stroke-linecap=" round" stroke-linejoin=" round" stroke-width=" 2px" r="3" cy="24" cx="24"/>
  <path id="svg_5" fill="#ff7f00" stroke=" #000" stroke-linecap=" round" stroke-linejoin=" round" stroke-width=" 2px" d="m22,17.936104l-20,0a1,1 0 0 1 -1,-1l0,-5a1,1 0 0 1 1,-1l18,0"/>
  <polyline id="svg_6" fill=" none" stroke=" #000" stroke-linecap=" round" stroke-linejoin=" round" stroke-width=" 2px" points="1 21 2 21 4 18.3"/>
  <path id="svg_7" fill="#ff7f00" stroke=" #000" stroke-linecap=" round" stroke-linejoin=" round" stroke-width=" 2px" d="m10,18.2l2,2.8l7,0l2,-3l6,0l2,3l2,0l0,-13a3,3 0 0 0 -3,-3l-5,0l0,12"/>
  <line id="svg_8" fill=" none" stroke=" #000" stroke-linecap=" round" stroke-linejoin=" round" stroke-width=" 2px" y2="16" y1="16" x2="29" x1="30"/>
 </g>
</svg>