<svg width="96" height="96" xmlns="http://www.w3.org/2000/svg">

 <g>
  <title>background</title>
  <rect fill="none" id="canvas_background" height="402" width="582" y="-1" x="-1"/>
 </g>
 <g>
  <title>Layer 1</title>
  <path id="svg_2" fill-rule="evenodd" fill="#ff7f00" d="m48,94.871c-25.886,0 -46.871,-20.984 -46.871,-46.871c0,-25.886 20.985,-46.871 46.871,-46.871c25.887,0 46.871,20.985 46.871,46.871c0,25.887 -20.984,46.871 -46.871,46.871" clip-rule="evenodd"/>
  <path id="svg_3" fill-rule="evenodd" fill="#ff7f00" d="m94.224,56.171372l-16.888,-16.851l-0.107,-0.126l4.16,7.172c0.493,0.288 0.938,0.579 1.338,0.884c0.403,0.309 0.768,0.637 1.096,0.995c0.337,0.369 0.625,0.759 0.869,1.178c0.244,0.418 0.447,0.871 0.615,1.369c0.166,0.493 0.301,1.035 0.408,1.637c0.108,0.603 0.189,1.243 0.246,1.933c0.053,0.649 0.09,1.399 0.115,2.252c0.023,0.812 0.033,1.711 0.035,2.701l0,0.5l0.002,0.75l-0.748,0l-0.499,0l-2.278,0l-0.434,0l-0.252,0c-0.013,0.342 -0.053,0.68 -0.119,1.009c-0.081,0.414 -0.205,0.819 -0.366,1.209c-0.163,0.394 -0.363,0.768 -0.597,1.117c-0.234,0.352 -0.503,0.679 -0.799,0.976l-0.354,0.354l-0.531,0.532l-0.089,-0.09c-0.081,0.054 -0.163,0.106 -0.247,0.157c-0.281,0.171 -0.576,0.32 -0.879,0.445c-0.389,0.161 -0.793,0.285 -1.207,0.368c-0.408,0.08 -0.827,0.123 -1.253,0.123s-0.846,-0.043 -1.254,-0.123c-0.413,-0.082 -0.819,-0.206 -1.208,-0.367c-0.397,-0.164 -0.771,-0.363 -1.115,-0.593l-0.003,-0.003c-0.358,-0.239 -0.686,-0.507 -0.978,-0.798l-0.002,-0.002l-0.354,-0.354l-0.529,-0.53l0.09,-0.091c-0.053,-0.08 -0.105,-0.162 -0.156,-0.246c-0.17,-0.282 -0.32,-0.576 -0.445,-0.879c-0.16,-0.389 -0.285,-0.794 -0.367,-1.207c-0.064,-0.328 -0.105,-0.663 -0.119,-1.003l-0.251,0l-0.434,0l-7.194,0l-0.5,0l-0.282,0l-0.468,0l-0.282,0l-0.5,0l-15.696,0l-0.434,0l-0.252,0c-0.013,0.34 -0.054,0.675 -0.118,1.003c-0.082,0.413 -0.207,0.818 -0.367,1.209c-0.163,0.393 -0.363,0.768 -0.597,1.117c-0.234,0.352 -0.504,0.68 -0.799,0.976l0,0.003l-0.002,0.002l-0.003,0c-0.296,0.295 -0.624,0.564 -0.976,0.799c-0.35,0.232 -0.724,0.434 -1.117,0.597c-0.391,0.16 -0.795,0.285 -1.209,0.367c-0.408,0.08 -0.828,0.123 -1.254,0.123c-0.425,0 -0.845,-0.043 -1.253,-0.123c-0.413,-0.083 -0.817,-0.207 -1.207,-0.368c-0.191,-0.079 -0.379,-0.168 -0.562,-0.265l27.496,27.486c17.251,-4.87 30.46,-19.368 33.464,-37.324" clip-rule="evenodd"/>
  <line id="svg_4" y2="59.937" y1="59.937" x2="60.837" x1="69.193" stroke-width="1.9998" stroke-miterlimit="2.6131" stroke-linejoin="round" stroke-linecap="round" stroke="#FFFFFF" fill="none"/>
  <path id="svg_5" stroke-width="1.9998" stroke-miterlimit="2.6131" stroke-linejoin="round" stroke-linecap="round" stroke="#FFFFFF" fill="none" d="m60.837,59.937c-0.392,0 -0.721,-0.325 -0.721,-0.721"/>
  <line id="svg_6" y2="33.206" y1="59.216" x2="60.116" x1="60.116" stroke-width="1.9998" stroke-miterlimit="2.6131" stroke-linejoin="round" stroke-linecap="round" stroke="#FFFFFF" fill="none"/>
  <path id="svg_7" stroke-width="1.9998" stroke-miterlimit="2.6131" stroke-linejoin="round" stroke-linecap="round" stroke="#FFFFFF" fill="none" d="m60.116,33.206c0,-0.396 0.324,-0.72 0.721,-0.72"/>
  <line id="svg_8" y2="32.486" y1="32.486" x2="70.55" x1="60.837" stroke-width="1.9998" stroke-miterlimit="2.6131" stroke-linejoin="round" stroke-linecap="round" stroke="#FFFFFF" fill="none"/>
  <path id="svg_9" stroke-width="1.9998" stroke-miterlimit="2.6131" stroke-linejoin="round" stroke-linecap="round" stroke="#FFFFFF" fill="none" d="m70.55,32.486c2.663,0 4.016,2.273 5.204,4.321"/>
  <line id="svg_10" y2="46.169" y1="36.808" x2="81.183" x1="75.754" stroke-width="1.9998" stroke-miterlimit="2.6131" stroke-linejoin="round" stroke-linecap="round" stroke="#FFFFFF" fill="none"/>
  <path id="svg_11" stroke-width="1.9998" stroke-miterlimit="2.6131" stroke-linejoin="round" stroke-linecap="round" stroke="#FFFFFF" fill="none" d="m81.183,46.169c4.089,2.359 4.659,4.807 4.659,13.047c0,0.391 -0.382,0.716 -0.769,0.716"/>
  <line id="svg_12" y2="59.932" y1="59.932" x2="81.728" x1="85.073" stroke-width="1.9998" stroke-miterlimit="2.6131" stroke-linejoin="round" stroke-linecap="round" stroke="#FFFFFF" fill="none"/>
  <line id="svg_13" y2="49.026" y1="49.026" x2="68.285" x1="63.998" stroke-width="1.9998" stroke-miterlimit="2.6131" stroke-linejoin="round" stroke-linecap="round" stroke="#FFFFFF" fill="none"/>
  <polyline id="svg_14" stroke-width="1.9998" stroke-miterlimit="2.6131" stroke-linejoin="round" stroke-linecap="round" stroke="#FFFFFF" points="   63.189,35.252 63.187,44.826 72.248,44.826  " fill="none"/>
  <path id="svg_15" stroke-width="1.9998" stroke-miterlimit="2.6131" stroke-linejoin="round" stroke-linecap="round" stroke="#FFFFFF" fill="none" d="m72.248,44.826c1.217,0 2.736,-0.598 3.39,-1.222"/>
  <line id="svg_16" y2="37.709" y1="43.604" x2="72.293" x1="75.638" stroke-width="1.9998" stroke-miterlimit="2.6131" stroke-linejoin="round" stroke-linecap="round" stroke="#FFFFFF" fill="none"/>
  <path id="svg_17" stroke-width="1.9998" stroke-miterlimit="2.6131" stroke-linejoin="round" stroke-linecap="round" stroke="#FFFFFF" fill="none" d="m72.166,37.526c-0.763,-1.014 -1.786,-2.274 -3.416,-2.274"/>
  <line id="svg_18" y2="35.252" y1="35.255" x2="63.314" x1="68.774" stroke-width="1.9998" stroke-miterlimit="2.6131" stroke-linejoin="round" stroke-linecap="round" stroke="#FFFFFF" fill="none"/>
  <polyline id="svg_19" stroke-width="1.9998" stroke-miterlimit="2.6131" stroke-linejoin="round" stroke-linecap="round" stroke="#FFFFFF" points="   60.084,50.931 25.171,50.931 25.171,30.374  " fill="none"/>
  <path id="svg_20" stroke-width="1.9998" stroke-miterlimit="2.6131" stroke-linejoin="round" stroke-linecap="round" stroke="#FFFFFF" fill="none" d="m25.171,30.374c0,-0.278 0.227,-0.505 0.504,-0.505"/>
  <line id="svg_21" y2="29.869" y1="29.869" x2="59.58" x1="25.675" stroke-width="1.9998" stroke-miterlimit="2.6131" stroke-linejoin="round" stroke-linecap="round" stroke="#FFFFFF" fill="none"/>
  <path id="svg_22" stroke-width="1.9998" stroke-miterlimit="2.6131" stroke-linejoin="round" stroke-linecap="round" stroke="#FFFFFF" fill="none" d="m59.58,29.869c0.277,0 0.504,0.227 0.504,0.505"/>
  <line id="svg_23" y2="50.931" y1="30.374" x2="60.084" x1="60.084" stroke-width="1.9998" stroke-miterlimit="2.6131" stroke-linejoin="round" stroke-linecap="round" stroke="#FFFFFF" fill="none"/>
  <polyline id="svg_24" stroke-width="1.9998" stroke-miterlimit="2.6131" stroke-linejoin="round" stroke-linecap="round" stroke="#FFFFFF" points="   29.973,59.937 25.17,59.937 25.17,50.933 60.085,50.933 60.085,59.937 42.648,59.937  " fill="none"/>
  <line id="svg_25" y2="55.435" y1="55.435" x2="57.229" x1="43.997" stroke-width="1.9998" stroke-miterlimit="2.6131" stroke-linejoin="round" stroke-linecap="round" stroke="#FFFFFF" fill="none"/>
  <path id="svg_26" stroke-width="1.9998" stroke-miterlimit="2.6131" stroke-linejoin="round" stroke-linecap="round" stroke="#FFFFFF" fill="none" d="m36.263,53.741c3.421,0 6.195,2.773 6.195,6.195s-2.774,6.195 -6.195,6.195c-3.422,0 -6.195,-2.773 -6.195,-6.195s2.773,-6.195 6.195,-6.195"/>
  <path id="svg_27" stroke-width="1.9998" stroke-miterlimit="2.6131" stroke-linejoin="round" stroke-linecap="round" stroke="#FFFFFF" fill="none" d="m36.263,57.073c1.582,0 2.863,1.282 2.863,2.864c0,1.58 -1.281,2.862 -2.863,2.862c-1.581,0 -2.863,-1.282 -2.863,-2.862c-0.001,-1.582 1.282,-2.864 2.863,-2.864"/>
  <path id="svg_28" stroke-width="1.9998" stroke-miterlimit="2.6131" stroke-linejoin="round" stroke-linecap="round" stroke="#FFFFFF" fill="none" d="m75.438,53.741c3.422,0 6.195,2.773 6.195,6.195s-2.773,6.195 -6.195,6.195s-6.195,-2.773 -6.195,-6.195s2.773,-6.195 6.195,-6.195"/>
  <path id="svg_29" stroke-width="1.9998" stroke-miterlimit="2.6131" stroke-linejoin="round" stroke-linecap="round" stroke="#FFFFFF" fill="none" d="m75.438,57.36c1.422,0 2.576,1.154 2.576,2.576c0,1.423 -1.154,2.576 -2.576,2.576s-2.576,-1.153 -2.576,-2.576c-0.001,-1.421 1.154,-2.576 2.576,-2.576"/>
  <line id="svg_30" y2="30.045" y1="30.045" x2="10.159" x1="21.989" stroke-width="1.9998" stroke-miterlimit="2.6131" stroke-linejoin="round" stroke-linecap="round" stroke="#FFFFFF" fill="none"/>
  <line id="svg_31" y2="34.269" y1="34.269" x2="11.6" x1="21.989" stroke-width="1.9998" stroke-miterlimit="2.6131" stroke-linejoin="round" stroke-linecap="round" stroke="#FFFFFF" fill="none"/>
  <line id="svg_32" y2="38.489" y1="38.489" x2="13.041" x1="21.989" stroke-width="1.9998" stroke-miterlimit="2.6131" stroke-linejoin="round" stroke-linecap="round" stroke="#FFFFFF" fill="none"/>
  <line id="svg_33" y2="42.71" y1="42.71" x2="14.481" x1="21.989" stroke-width="1.9998" stroke-miterlimit="2.6131" stroke-linejoin="round" stroke-linecap="round" stroke="#FFFFFF" fill="none"/>
  <line id="svg_34" y2="46.93" y1="46.93" x2="15.923" x1="21.989" stroke-width="1.9998" stroke-miterlimit="2.6131" stroke-linejoin="round" stroke-linecap="round" stroke="#FFFFFF" fill="none"/>
  <line id="svg_35" y2="51.15" y1="51.15" x2="17.363" x1="21.989" stroke-width="1.9998" stroke-miterlimit="2.6131" stroke-linejoin="round" stroke-linecap="round" stroke="#FFFFFF" fill="none"/>
  <line id="svg_36" y2="55.372" y1="55.372" x2="18.805" x1="21.989" stroke-width="1.9998" stroke-miterlimit="2.6131" stroke-linejoin="round" stroke-linecap="round" stroke="#FFFFFF" fill="none"/>
  <line id="svg_37" y2="59.592" y1="59.592" x2="20.246" x1="21.989" stroke-width="1.9998" stroke-miterlimit="2.6131" stroke-linejoin="round" stroke-linecap="round" stroke="#FFFFFF" fill="none"/>
  <line id="svg_38" y2="55.435" y1="55.435" x2="29.171" x1="27.247" stroke-width="1.9998" stroke-miterlimit="2.6131" stroke-linejoin="round" stroke-linecap="round" stroke="#FFFFFF" fill="none"/>
 </g>
</svg>