<svg width="60" height="60" xmlns="http://www.w3.org/2000/svg">

 <g>
  <title>background</title>
  <rect fill="none" id="canvas_background" height="402" width="582" y="-1" x="-1"/>
 </g>
 <g>
  <title>Layer 1</title>
  <path stroke="#ff7f00" id="svg_2" d="m50.486,1.492l-2.229,0.318l0.363,-1.81l-11.62,0l-14,0l-10.281,0l-0.414,1.655c-0.454,-0.178 -1.003,-0.394 -1.548,-0.608l-0.774,-0.307l-8.776,14.042l1.053,3.16c-0.255,-0.134 -0.523,-0.274 -0.798,-0.417l-1.462,-0.76l0,15.101c0,0.881 0.306,1.742 0.862,2.426c1.237,1.521 2.358,2.894 3.161,3.874l0.273,0.334l0.43,0.03c0.937,0.067 1.889,0.132 2.781,0.19l-2.871,1.148l-4.42,12.631c-0.143,0.408 -0.216,0.835 -0.216,1.27l0,2.39c0,2.117 1.723,3.841 3.841,3.841l21.262,0c0.301,0 0.602,-0.035 0.894,-0.105c6.477,-1.545 12.443,-2.997 14.966,-3.611l0.563,-0.138l0.161,-0.557c0.096,-0.332 0.195,-0.674 0.295,-1.013l0.496,1.735l7.445,3.351c0.497,0.224 1.028,0.338 1.576,0.338l4.66,0c2.118,0 3.841,-1.724 3.841,-3.842l0,-7.334c0,-0.515 -0.101,-1.017 -0.32,-1.534l-5.1,-10.719c-0.013,-0.061 -0.027,-0.12 -0.043,-0.18l-0.123,-0.438l-2.902,-1.386l2.874,-0.358l0.233,-0.505c0.074,-0.16 0.151,-0.289 0.238,-0.394l4.276,-5.227c0.558,-0.682 0.867,-1.546 0.867,-2.431l0,-8.939l-9.514,-15.221zm-4.306,0.508l-0.438,2.189l3.738,-0.533l7.716,12.344l-20.196,0l0,-14l9.18,0zm-16.18,0l5,0l0,14l-5,0l-5,0l0,-14l5,0zm-5,16l1,0c0,0.552 0.448,1 1,1s1,-0.448 1,-1l4,0c0,0.552 0.448,1 1,1s1,-0.448 1,-1l1,0l0,15.586l-1,-1l-4,4l-4,-4l-1,1l0,-15.586zm-14.203,-14.788c0.997,0.393 1.84,0.72 1.84,0.72l1.058,0.412l0.586,-2.344l8.719,0l0,14l-19.279,0l-0.319,-0.956l7.395,-11.832zm46.787,23.606l-4.274,5.225c-0.082,0.099 -0.158,0.203 -0.229,0.314l-8.592,1.074l8.248,3.938c0.008,0.02 0.016,0.04 0.025,0.061l5.094,10.678c0.095,0.228 0.144,0.469 0.144,0.716l0,7.334c0,1.016 -0.826,1.842 -1.841,1.842l-4.66,0c-0.263,0 -0.517,-0.055 -0.755,-0.162l-6.598,-2.97l-2.121,-7.421l-0.982,3.265c0,0 -0.58,1.925 -1.115,3.765c-2.774,0.676 -8.362,2.033 -14.396,3.473c-0.14,0.033 -0.285,0.05 -0.429,0.05l-21.262,0c-0.132,0 -0.261,-0.015 -0.385,-0.042l2.251,-2.251c0.391,-0.391 0.391,-1.023 0,-1.414s-1.023,-0.391 -1.414,0l-2.251,2.251c-0.027,-0.125 -0.042,-0.253 -0.042,-0.386l0,-2.39c0,-0.208 0.035,-0.412 0.104,-0.608l4.12,-11.772l10.306,-4.123l-4.471,-0.263c0,0 -3.409,-0.201 -6.76,-0.437c-0.774,-0.947 -1.784,-2.183 -2.884,-3.536c-0.268,-0.328 -0.415,-0.742 -0.415,-1.164l0,-11.799c0.903,0.478 1.523,0.813 1.525,0.813l2.223,1.201l-1.361,-4.08l18.613,0l0,20.414l3,-3l4,4l4,-4l3,3l0,-20.414l21,0l0,7.652c0,0.424 -0.147,0.838 -0.416,1.166z"/>
  <circle id="svg_3" r="1" cy="3" cx="30"/>
  <circle id="svg_4" r="1" cy="6" cx="27"/>
  <circle id="svg_5" r="1" cy="12" cx="27"/>
  <circle id="svg_6" r="1" cy="9" cx="30"/>
  <circle id="svg_7" r="1" cy="6" cx="33"/>
  <circle id="svg_8" r="1" cy="12" cx="33"/>
  <circle id="svg_9" r="1" cy="15.119808" cx="29.640576"/>
  <circle id="svg_10" r="1" cy="24" cx="27"/>
  <circle id="svg_11" r="1" cy="21" cx="30"/>
  <circle id="svg_12" r="1" cy="24" cx="33"/>
  <circle id="svg_13" r="1" cy="27" cx="30"/>
  <circle id="svg_14" r="1" cy="30" cx="27"/>
  <circle id="svg_15" r="1" cy="33" cx="30"/>
  <circle id="svg_16" r="1" cy="30" cx="33"/>
 </g>
</svg>