<svg width="439.344" height="457.48499999999996" xmlns="http://www.w3.org/2000/svg">

 <g>
  <title>background</title>
  <rect fill="none" id="canvas_background" height="402" width="582" y="-1" x="-1"/>
 </g>
 <g>
  <title>Layer 1</title>
  <path fill="#56ffff" id="path2270" d="m250.512,449.131c22.483,-9.733 32.974,-8.416 51.478,1.264c18.504,9.682 37.007,9.682 58.833,-1.451c21.822,-11.133 39.584,-4.786 49.439,1.187c8.25,5 16.5,7 28.844,7l0,-44.53c-18.594,0.03 -26.57,-6.292 -26.57,-6.292c-19.214,-11.861 -36.828,-9.514 -61.024,3.072c-13.802,7.176 -35.689,5.288 -51.184,-2.79c-21.351,-11.132 -33.439,-8.41 -55.816,1.54c-17.337,7.708 -32.984,7.703 -50.25,0c-22.363,-9.979 -33.895,-12.672 -55.246,-1.54c-15.494,8.078 -37.702,9.966 -51.504,2.79c-24.197,-12.586 -41.49,-14.933 -60.705,-3.072c0,0 -8.295,6.292 -26.57,6.292l0,44.53c11.525,0 20.525,-2.25 28.275,-7c9.836,-6.028 28.184,-12.32 50.01,-1.187c21.825,11.133 40.329,11.133 58.833,1.451c18.504,-9.68 28.759,-11.425 51.242,-1.692c21.824,11.133 43.41,10.108 61.915,0.428z"/>
  <path fill="#ff7f00" id="path2272" d="m250.012,383.131c17.75,-9 33.71,-8.486 52.214,1.195c18.504,9.68 37.008,9.68 58.833,-1.453c21.824,-11.133 40.145,-5.507 50.292,-0.042c8.911,4.8 15.161,7.3 27.993,8.229l0,-43.429c-16.332,-0.392 -26.569,-6.293 -26.569,-6.293c-37.763,-20.599 -54.191,4.482 -74.49,4.482l0,-100.412l31.314,-72.123c4.745,-11.132 0,-21.297 -11.387,-26.137l-18.978,-7.745l0,-62.44l-36.559,0l0,-32.898l-51.217,0l0,-44.065l-31.786,0l-31.786,0l0,44.065l-51.216,0l0,32.898l-36.559,0l0,62.44l-18.978,7.745c-11.388,4.84 -16.133,15.005 -11.388,26.137l31.314,72.123l0,100.412l0.011,0c-20.297,0 -37.558,-24.689 -74.489,-4.09l-0.012,0c0,0 -10.557,5.901 -26.569,6.292l0,43.038c12.512,-0.929 18.512,-2.929 27.992,-8.229c10.067,-5.627 28.469,-11.091 50.293,0.042c21.826,11.133 40.329,11.133 58.833,1.453c18.505,-9.681 34.636,-10.166 51.953,-1.453c21.825,11.133 38.941,11.258 60.941,0.258z"/>
  <path id="path2274" d="m219.672,70.187l-55.984,0l0,32.413l-36.533,0l0,25.186l92.517,-38.155l92.518,38.155l0,-25.186l-36.534,0l0,-32.413l-55.984,0z"/>
 </g>
</svg>